<svg id="Livello_1" data-name="Livello 1" xmlns="http://www.w3.org/2000/svg" viewBox="0 0 500 500"><path d="M392,336.85a2.07,2.07,0,0,0-2.07-2.09H277.24c-5.36,0-10.72,0-16.08,0-4.78,0-9.56.1-14.45-.05a2,2,0,0,1-2-2.51v0a17.36,17.36,0,0,1,6.47-9.15,61,61,0,0,1,17.38-9.41c9.8-3.48,19.64-6.88,29.56-10,15.7-5,31.42-9.87,46.33-17,10.09-4.8,19.68-10.4,27.65-18.37,10.11-10.11,15.66-22.19,15.57-36.66-.05-6.2,0-12.41,0-18.61a15.16,15.16,0,0,0-.12-1.76,2.08,2.08,0,0,0-1.82-1.83,7.54,7.54,0,0,0-1.05-.08c-15.06-.17-30.14-.37-45.2-.49-44.05-.38-88.1-.1-132.15-.06a2.08,2.08,0,0,0-2.08,2.07v26.6a2.09,2.09,0,0,0,2,2.08c2.17.13,4.34.25,6.52.25q66.21,0,132.41,0a12.49,12.49,0,0,1,1.34.08,2.09,2.09,0,0,1,1.8,2.6,16.38,16.38,0,0,1-7.13,10,109.82,109.82,0,0,1-12,7c-10.9,5.35-22.45,9-33.94,12.81-17,5.62-34.1,10.76-50.3,18.43-8.81,4.18-17.18,9.09-24.29,15.89-9.13,8.73-14.61,19.28-15.17,32-.35,7.88-.1,15.79-.06,23.68a5.86,5.86,0,0,0,.17,1.29,2.11,2.11,0,0,0,2,1.64H387.42c1.12,0,2.24-.13,3.36-.21a.84.84,0,0,0,.36-.19c.11-.08.2-.2.7-.71C392.17,355.46,392,346.47,392,336.85Z"/><path d="M387.76,148.88v30.18a2.07,2.07,0,0,1-2.07,2.07H329.62c-34,0-68.07-.11-102.11.07A218.56,218.56,0,0,0,202.35,183a39.46,39.46,0,0,0-11.95,3.83c-6.17,2.95-9.39,8.46-11.12,14.9a51.66,51.66,0,0,0-1.45,15.36v40.44q0,19.71,0,39.41h0v66.2a2.08,2.08,0,0,1-2.07,2.08H144.35a2.08,2.08,0,0,1-2.07-2.08V305.25a13.63,13.63,0,0,1,0-2.56c0-29.23-.06-58.47,0-87.71,0-10,.42-20,.64-30.06,0-.53,0-1.07,0-1.63a2.09,2.09,0,0,0-2.08-2.09H101.1A2.08,2.08,0,0,1,99,179.13V148.88a2.08,2.08,0,0,1,2.08-2.08H227.51V147c34.2-.59,68.41.3,102.61-.12h.06v-.09h55.51A2.08,2.08,0,0,1,387.76,148.88Z"/></svg>